<svg viewBox="0 0 1150 376" xmlns="http://www.w3.org/2000/svg">
<defs>
<pattern id="grid" width="24" height="24" patternUnits="userSpaceOnUse"><path d="M 24 0 L 0 0 0 24" fill="none" stroke="#1a1a1a" stroke-width="1"/></pattern>
</defs>
<rect width="1150" height="376" fill="#000000"/>
<rect width="1150" height="376" fill="url(#grid)"/>
<polygon points="34,12 1116,12 1138,34 1138,342 1116,364 34,364 12,342 12,34" fill="none" stroke="#ffffff" stroke-width="2"/>
<polygon points="44,20 1106,20 1128,42 1128,334 1106,356 44,356 22,334 22,42" fill="none" stroke="#555555" stroke-width="1"/>
<g stroke="#ffffff" stroke-width="3" fill="none">
<path d="M6,40 L6,6 L40,6"><animate attributeName="stroke-opacity" values="1;0.25;1" dur="2.4s" begin="0s" repeatCount="indefinite"/></path>
<path d="M1110,6 L1144,6 L1144,40"><animate attributeName="stroke-opacity" values="1;0.25;1" dur="2.4s" begin="0.6s" repeatCount="indefinite"/></path>
<path d="M1144,336 L1144,370 L1110,370"><animate attributeName="stroke-opacity" values="1;0.25;1" dur="2.4s" begin="1.2s" repeatCount="indefinite"/></path>
<path d="M40,370 L6,370 L6,336"><animate attributeName="stroke-opacity" values="1;0.25;1" dur="2.4s" begin="1.8s" repeatCount="indefinite"/></path>
</g>
<line x1="40" y1="34" x2="1110" y2="34" stroke="#333333" stroke-width="1"/>
<polygon points="103.21799999999996,58 167.27799999999996,58 173.27799999999996,64 173.27799999999996,78 167.27799999999996,84 103.21799999999996,84 97.21799999999996,78 97.21799999999996,64" fill="#000000" stroke="#7C3AED" stroke-width="1.2"/>
<text x="135.2" y="75" font-family="Georgia, 'Times New Roman', serif" font-size="10.5" font-weight="bold" font-style="italic" letter-spacing="0.6" fill="#7C3AED" text-anchor="middle">SPLUNK</text>
<polygon points="197.27799999999996,58 310.424,58 316.424,64 316.424,78 310.424,84 197.27799999999996,84 191.27799999999996,78 191.27799999999996,64" fill="#000000" stroke="#ffffff" stroke-width="1.2"/>
<text x="253.9" y="75" font-family="Georgia, 'Times New Roman', serif" font-size="10.5" font-weight="bold" font-style="italic" letter-spacing="0.6" fill="#ffffff" text-anchor="middle">LOG INGESTION</text>
<polygon points="340.424,58 439.584,58 445.584,64 445.584,78 439.584,84 340.424,84 334.424,78 334.424,64" fill="#000000" stroke="#ffffff" stroke-width="1.2"/>
<text x="390.0" y="75" font-family="Georgia, 'Times New Roman', serif" font-size="10.5" font-weight="bold" font-style="italic" letter-spacing="0.6" fill="#ffffff" text-anchor="middle">ALERT RULES</text>
<polygon points="469.584,58 567.826,58 573.826,64 573.826,78 567.826,84 469.584,84 463.584,78 463.584,64" fill="#000000" stroke="#ffffff" stroke-width="1.2"/>
<text x="518.7" y="75" font-family="Georgia, 'Times New Roman', serif" font-size="10.5" font-weight="bold" font-style="italic" letter-spacing="0.6" fill="#ffffff" text-anchor="middle">DASHBOARDS</text>
<polygon points="597.826,58 750.932,58 756.932,64 756.932,78 750.932,84 597.826,84 591.826,78 591.826,64" fill="#000000" stroke="#7C3AED" stroke-width="1.2"/>
<text x="674.4" y="75" font-family="Georgia, 'Times New Roman', serif" font-size="10.5" font-weight="bold" font-style="italic" letter-spacing="0.6" fill="#7C3AED" text-anchor="middle">MICROSOFT SENTINEL</text>
<polygon points="780.932,58 911.3040000000001,58 917.3040000000001,64 917.3040000000001,78 911.3040000000001,84 780.932,84 774.932,78 774.932,64" fill="#000000" stroke="#7C3AED" stroke-width="1.2"/>
<text x="846.1" y="75" font-family="Georgia, 'Times New Roman', serif" font-size="10.5" font-weight="bold" font-style="italic" letter-spacing="0.6" fill="#7C3AED" text-anchor="middle">SIEM MONITORING</text>
<polygon points="941.3040000000001,58 1046.7820000000002,58 1052.7820000000002,64 1052.7820000000002,78 1046.7820000000002,84 941.3040000000001,84 935.3040000000001,78 935.3040000000001,64" fill="#000000" stroke="#ffffff" stroke-width="1.2"/>
<text x="994.0" y="75" font-family="Georgia, 'Times New Roman', serif" font-size="10.5" font-weight="bold" font-style="italic" letter-spacing="0.6" fill="#ffffff" text-anchor="middle">ALERT TRIAGE</text>
<polygon points="167.52799999999996,94 270.306,94 276.306,100 276.306,114 270.306,120 167.52799999999996,120 161.52799999999996,114 161.52799999999996,100" fill="#000000" stroke="#7C3AED" stroke-width="1.2"/>
<text x="218.9" y="111" font-family="Georgia, 'Times New Roman', serif" font-size="10.5" font-weight="bold" font-style="italic" letter-spacing="0.6" fill="#7C3AED" text-anchor="middle">LOG ANALYSIS</text>
<polygon points="300.306,94 360.154,94 366.154,100 366.154,114 360.154,120 300.306,120 294.306,114 294.306,100" fill="#000000" stroke="#7C3AED" stroke-width="1.2"/>
<text x="330.2" y="111" font-family="Georgia, 'Times New Roman', serif" font-size="10.5" font-weight="bold" font-style="italic" letter-spacing="0.6" fill="#7C3AED" text-anchor="middle">IDS/IPS</text>
<polygon points="390.154,94 515.234,94 521.234,100 521.234,114 515.234,120 390.154,120 384.154,114 384.154,100" fill="#000000" stroke="#ffffff" stroke-width="1.2"/>
<text x="452.7" y="111" font-family="Georgia, 'Times New Roman', serif" font-size="10.5" font-weight="bold" font-style="italic" letter-spacing="0.6" fill="#ffffff" text-anchor="middle">IOC/IOA ANALYSIS</text>
<polygon points="545.234,94 670.0980000000001,94 676.0980000000001,100 676.0980000000001,114 670.0980000000001,120 545.234,120 539.234,114 539.234,100" fill="#000000" stroke="#7C3AED" stroke-width="1.2"/>
<text x="607.7" y="111" font-family="Georgia, 'Times New Roman', serif" font-size="10.5" font-weight="bold" font-style="italic" letter-spacing="0.6" fill="#7C3AED" text-anchor="middle">THREAT HUNTING</text>
<polygon points="700.0980000000001,94 843.6460000000001,94 849.6460000000001,100 849.6460000000001,114 843.6460000000001,120 700.0980000000001,120 694.0980000000001,114 694.0980000000001,100" fill="#000000" stroke="#7C3AED" stroke-width="1.2"/>
<text x="771.9" y="111" font-family="Georgia, 'Times New Roman', serif" font-size="10.5" font-weight="bold" font-style="italic" letter-spacing="0.6" fill="#7C3AED" text-anchor="middle">INCIDENT RESPONSE</text>
<polygon points="873.6460000000001,94 982.4720000000001,94 988.4720000000001,100 988.4720000000001,114 982.4720000000001,120 873.6460000000001,120 867.6460000000001,114 867.6460000000001,100" fill="#000000" stroke="#ffffff" stroke-width="1.2"/>
<text x="928.1" y="111" font-family="Georgia, 'Times New Roman', serif" font-size="10.5" font-weight="bold" font-style="italic" letter-spacing="0.6" fill="#ffffff" text-anchor="middle">PCAP ANALYSIS</text>
<polygon points="56.66999999999996,130 254.164,130 260.164,136 260.164,150 254.164,156 56.66999999999996,156 50.66999999999996,150 50.66999999999996,136" fill="#000000" stroke="#7C3AED" stroke-width="1.2"/>
<text x="155.4" y="147" font-family="Georgia, 'Times New Roman', serif" font-size="10.5" font-weight="bold" font-style="italic" letter-spacing="0.6" fill="#7C3AED" text-anchor="middle">VULNERABILITY ASSESSMENT</text>
<polygon points="284.164,130 441.428,130 447.428,136 447.428,150 441.428,156 284.164,156 278.164,150 278.164,136" fill="#000000" stroke="#ffffff" stroke-width="1.2"/>
<text x="362.8" y="147" font-family="Georgia, 'Times New Roman', serif" font-size="10.5" font-weight="bold" font-style="italic" letter-spacing="0.6" fill="#ffffff" text-anchor="middle">INCIDENT ESCALATION</text>
<polygon points="471.428,130 691.278,130 697.278,136 697.278,150 691.278,156 471.428,156 465.428,150 465.428,136" fill="#000000" stroke="#ffffff" stroke-width="1.2"/>
<text x="581.4" y="147" font-family="Georgia, 'Times New Roman', serif" font-size="10.5" font-weight="bold" font-style="italic" letter-spacing="0.6" fill="#ffffff" text-anchor="middle">PLAYBOOK/RUNBOOK EXECUTION</text>
<polygon points="721.278,130 774.4300000000001,130 780.4300000000001,136 780.4300000000001,150 774.4300000000001,156 721.278,156 715.278,150 715.278,136" fill="#000000" stroke="#ffffff" stroke-width="1.2"/>
<text x="747.9" y="147" font-family="Georgia, 'Times New Roman', serif" font-size="10.5" font-weight="bold" font-style="italic" letter-spacing="0.6" fill="#ffffff" text-anchor="middle">OSINT</text>
<polygon points="804.4300000000001,130 893.9240000000001,130 899.9240000000001,136 899.9240000000001,150 893.9240000000001,156 804.4300000000001,156 798.4300000000001,150 798.4300000000001,136" fill="#000000" stroke="#7C3AED" stroke-width="1.2"/>
<text x="849.2" y="147" font-family="Georgia, 'Times New Roman', serif" font-size="10.5" font-weight="bold" font-style="italic" letter-spacing="0.6" fill="#7C3AED" text-anchor="middle">WIRESHARK</text>
<polygon points="923.9240000000001,130 975.0780000000001,130 981.0780000000001,136 981.0780000000001,150 975.0780000000001,156 923.9240000000001,156 917.9240000000001,150 917.9240000000001,136" fill="#000000" stroke="#7C3AED" stroke-width="1.2"/>
<text x="949.5" y="147" font-family="Georgia, 'Times New Roman', serif" font-size="10.5" font-weight="bold" font-style="italic" letter-spacing="0.6" fill="#7C3AED" text-anchor="middle">NMAP</text>
<polygon points="1005.0780000000001,130 1093.3300000000002,130 1099.3300000000002,136 1099.3300000000002,150 1093.3300000000002,156 1005.0780000000001,156 999.0780000000001,150 999.0780000000001,136" fill="#000000" stroke="#7C3AED" stroke-width="1.2"/>
<text x="1049.2" y="147" font-family="Georgia, 'Times New Roman', serif" font-size="10.5" font-weight="bold" font-style="italic" letter-spacing="0.6" fill="#7C3AED" text-anchor="middle">BURP SUITE</text>
<polygon points="91.69299999999998,166 154.13299999999998,166 160.13299999999998,172 160.13299999999998,186 154.13299999999998,192 91.69299999999998,192 85.69299999999998,186 85.69299999999998,172" fill="#000000" stroke="#ffffff" stroke-width="1.2"/>
<text x="122.9" y="183" font-family="Georgia, 'Times New Roman', serif" font-size="10.5" font-weight="bold" font-style="italic" letter-spacing="0.6" fill="#ffffff" text-anchor="middle">NESSUS</text>
<polygon points="184.13299999999998,166 278.055,166 284.055,172 284.055,186 278.055,192 184.13299999999998,192 178.13299999999998,186 178.13299999999998,172" fill="#000000" stroke="#7C3AED" stroke-width="1.2"/>
<text x="231.1" y="183" font-family="Georgia, 'Times New Roman', serif" font-size="10.5" font-weight="bold" font-style="italic" letter-spacing="0.6" fill="#7C3AED" text-anchor="middle">METASPLOIT</text>
<polygon points="308.055,166 394.957,166 400.957,172 400.957,186 394.957,192 308.055,192 302.055,186 302.055,172" fill="#000000" stroke="#7C3AED" stroke-width="1.2"/>
<text x="351.5" y="183" font-family="Georgia, 'Times New Roman', serif" font-size="10.5" font-weight="bold" font-style="italic" letter-spacing="0.6" fill="#7C3AED" text-anchor="middle">KALI LINUX</text>
<polygon points="424.957,166 532.865,166 538.865,172 538.865,186 532.865,192 424.957,192 418.957,186 418.957,172" fill="#000000" stroke="#7C3AED" stroke-width="1.2"/>
<text x="478.9" y="183" font-family="Georgia, 'Times New Roman', serif" font-size="10.5" font-weight="bold" font-style="italic" letter-spacing="0.6" fill="#7C3AED" text-anchor="middle">MITRE ATT&amp;CK</text>
<polygon points="562.865,166 693.885,166 699.885,172 699.885,186 693.885,192 562.865,192 556.865,186 556.865,172" fill="#000000" stroke="#ffffff" stroke-width="1.2"/>
<text x="628.4" y="183" font-family="Georgia, 'Times New Roman', serif" font-size="10.5" font-weight="bold" font-style="italic" letter-spacing="0.6" fill="#ffffff" text-anchor="middle">CYBER KILL CHAIN</text>
<polygon points="723.885,166 823.153,166 829.153,172 829.153,186 823.153,192 723.885,192 717.885,186 717.885,172" fill="#000000" stroke="#7C3AED" stroke-width="1.2"/>
<text x="773.5" y="183" font-family="Georgia, 'Times New Roman', serif" font-size="10.5" font-weight="bold" font-style="italic" letter-spacing="0.6" fill="#7C3AED" text-anchor="middle">OWASP TOP 10</text>
<polygon points="853.153,166 924.1790000000001,166 930.1790000000001,172 930.1790000000001,186 924.1790000000001,192 853.153,192 847.153,186 847.153,172" fill="#000000" stroke="#7C3AED" stroke-width="1.2"/>
<text x="888.7" y="183" font-family="Georgia, 'Times New Roman', serif" font-size="10.5" font-weight="bold" font-style="italic" letter-spacing="0.6" fill="#7C3AED" text-anchor="middle">NIST CSF</text>
<polygon points="954.1790000000001,166 1058.307,166 1064.307,172 1064.307,186 1058.307,192 954.1790000000001,192 948.1790000000001,186 948.1790000000001,172" fill="#000000" stroke="#7C3AED" stroke-width="1.2"/>
<text x="1006.2" y="183" font-family="Georgia, 'Times New Roman', serif" font-size="10.5" font-weight="bold" font-style="italic" letter-spacing="0.6" fill="#7C3AED" text-anchor="middle">CVSS SCORING</text>
<polygon points="119.88499999999999,202 175.035,202 181.035,208 181.035,222 175.035,228 119.88499999999999,228 113.88499999999999,222 113.88499999999999,208" fill="#000000" stroke="#7C3AED" stroke-width="1.2"/>
<text x="147.5" y="219" font-family="Georgia, 'Times New Roman', serif" font-size="10.5" font-weight="bold" font-style="italic" letter-spacing="0.6" fill="#7C3AED" text-anchor="middle">TCP/IP</text>
<polygon points="205.035,202 245.281,202 251.281,208 251.281,222 245.281,228 205.035,228 199.035,222 199.035,208" fill="#000000" stroke="#ffffff" stroke-width="1.2"/>
<text x="225.2" y="219" font-family="Georgia, 'Times New Roman', serif" font-size="10.5" font-weight="bold" font-style="italic" letter-spacing="0.6" fill="#ffffff" text-anchor="middle">DNS</text>
<polygon points="275.281,202 365.963,202 371.963,208 371.963,222 365.963,228 275.281,228 269.281,222 269.281,208" fill="#000000" stroke="#ffffff" stroke-width="1.2"/>
<text x="320.6" y="219" font-family="Georgia, 'Times New Roman', serif" font-size="10.5" font-weight="bold" font-style="italic" letter-spacing="0.6" fill="#ffffff" text-anchor="middle">HTTP/HTTPS</text>
<polygon points="395.963,202 436.47900000000004,202 442.47900000000004,208 442.47900000000004,222 436.47900000000004,228 395.963,228 389.963,222 389.963,208" fill="#000000" stroke="#ffffff" stroke-width="1.2"/>
<text x="416.2" y="219" font-family="Georgia, 'Times New Roman', serif" font-size="10.5" font-weight="bold" font-style="italic" letter-spacing="0.6" fill="#ffffff" text-anchor="middle">VPN</text>
<polygon points="466.47900000000004,202 551.923,202 557.923,208 557.923,222 551.923,228 466.47900000000004,228 460.47900000000004,222 460.47900000000004,208" fill="#000000" stroke="#7C3AED" stroke-width="1.2"/>
<text x="509.2" y="219" font-family="Georgia, 'Times New Roman', serif" font-size="10.5" font-weight="bold" font-style="italic" letter-spacing="0.6" fill="#7C3AED" text-anchor="middle">FIREWALLS</text>
<polygon points="581.923,202 622.169,202 628.169,208 628.169,222 622.169,228 581.923,228 575.923,222 575.923,208" fill="#000000" stroke="#ffffff" stroke-width="1.2"/>
<text x="602.0" y="219" font-family="Georgia, 'Times New Roman', serif" font-size="10.5" font-weight="bold" font-style="italic" letter-spacing="0.6" fill="#ffffff" text-anchor="middle">ARP</text>
<polygon points="652.169,202 701.973,202 707.973,208 707.973,222 701.973,228 652.169,228 646.169,222 646.169,208" fill="#000000" stroke="#ffffff" stroke-width="1.2"/>
<text x="677.1" y="219" font-family="Georgia, 'Times New Roman', serif" font-size="10.5" font-weight="bold" font-style="italic" letter-spacing="0.6" fill="#ffffff" text-anchor="middle">DHCP</text>
<polygon points="731.973,202 856.675,202 862.675,208 862.675,222 856.675,228 731.973,228 725.973,222 725.973,208" fill="#000000" stroke="#ffffff" stroke-width="1.2"/>
<text x="794.3" y="219" font-family="Georgia, 'Times New Roman', serif" font-size="10.5" font-weight="bold" font-style="italic" letter-spacing="0.6" fill="#ffffff" text-anchor="middle">PACKET ANALYSIS</text>
<polygon points="886.675,202 1030.115,202 1036.115,208 1036.115,222 1030.115,228 886.675,228 880.675,222 880.675,208" fill="#000000" stroke="#ffffff" stroke-width="1.2"/>
<text x="958.4" y="219" font-family="Georgia, 'Times New Roman', serif" font-size="10.5" font-weight="bold" font-style="italic" letter-spacing="0.6" fill="#ffffff" text-anchor="middle">NETWORK SCANNING</text>
<polygon points="81.29399999999998,238 223.92399999999998,238 229.92399999999998,244 229.92399999999998,258 223.92399999999998,264 81.29399999999998,264 75.29399999999998,258 75.29399999999998,244" fill="#000000" stroke="#ffffff" stroke-width="1.2"/>
<text x="152.6" y="255" font-family="Georgia, 'Times New Roman', serif" font-size="10.5" font-weight="bold" font-style="italic" letter-spacing="0.6" fill="#ffffff" text-anchor="middle">PORT ENUMERATION</text>
<polygon points="253.92399999999998,238 340.826,238 346.826,244 346.826,258 340.826,264 253.92399999999998,264 247.92399999999998,258 247.92399999999998,244" fill="#000000" stroke="#7C3AED" stroke-width="1.2"/>
<text x="297.4" y="255" font-family="Georgia, 'Times New Roman', serif" font-size="10.5" font-weight="bold" font-style="italic" letter-spacing="0.6" fill="#7C3AED" text-anchor="middle">KALI LINUX</text>
<polygon points="370.826,238 511.29600000000005,238 517.296,244 517.296,258 511.29600000000005,264 370.826,264 364.826,258 364.826,244" fill="#000000" stroke="#ffffff" stroke-width="1.2"/>
<text x="441.1" y="255" font-family="Georgia, 'Times New Roman', serif" font-size="10.5" font-weight="bold" font-style="italic" letter-spacing="0.6" fill="#ffffff" text-anchor="middle">WINDOWS SECURITY</text>
<polygon points="541.296,238 620.26,238 626.26,244 626.26,258 620.26,264 541.296,264 535.296,258 535.296,244" fill="#000000" stroke="#ffffff" stroke-width="1.2"/>
<text x="580.8" y="255" font-family="Georgia, 'Times New Roman', serif" font-size="10.5" font-weight="bold" font-style="italic" letter-spacing="0.6" fill="#ffffff" text-anchor="middle">LINUX CLI</text>
<polygon points="650.26,238 744.722,238 750.722,244 750.722,258 744.722,264 650.26,264 644.26,258 644.26,244" fill="#000000" stroke="#ffffff" stroke-width="1.2"/>
<text x="697.5" y="255" font-family="Georgia, 'Times New Roman', serif" font-size="10.5" font-weight="bold" font-style="italic" letter-spacing="0.6" fill="#ffffff" text-anchor="middle">VIRTUALBOX</text>
<polygon points="774.722,238 972.756,238 978.756,244 978.756,258 972.756,264 774.722,264 768.722,258 768.722,244" fill="#000000" stroke="#ffffff" stroke-width="1.2"/>
<text x="873.7" y="255" font-family="Georgia, 'Times New Roman', serif" font-size="10.5" font-weight="bold" font-style="italic" letter-spacing="0.6" fill="#ffffff" text-anchor="middle">VIRTUAL LAB ENVIRONMENTS</text>
<polygon points="1002.756,238 1068.706,238 1074.706,244 1074.706,258 1068.706,264 1002.756,264 996.756,258 996.756,244" fill="#000000" stroke="#7C3AED" stroke-width="1.2"/>
<text x="1035.7" y="255" font-family="Georgia, 'Times New Roman', serif" font-size="10.5" font-weight="bold" font-style="italic" letter-spacing="0.6" fill="#7C3AED" text-anchor="middle">PYTHON</text>
<polygon points="120.65999999999997,274 265.936,274 271.936,280 271.936,294 265.936,300 120.65999999999997,300 114.65999999999997,294 114.65999999999997,280" fill="#000000" stroke="#ffffff" stroke-width="1.2"/>
<text x="193.3" y="291" font-family="Georgia, 'Times New Roman', serif" font-size="10.5" font-weight="bold" font-style="italic" letter-spacing="0.6" fill="#ffffff" text-anchor="middle">SECURITY SCRIPTING</text>
<polygon points="295.936,274 394.448,274 400.448,280 400.448,294 394.448,300 295.936,300 289.936,294 289.936,280" fill="#000000" stroke="#ffffff" stroke-width="1.2"/>
<text x="345.2" y="291" font-family="Georgia, 'Times New Roman', serif" font-size="10.5" font-weight="bold" font-style="italic" letter-spacing="0.6" fill="#ffffff" text-anchor="middle">AUTOMATION</text>
<polygon points="424.448,274 585.87,274 591.87,280 591.87,294 585.87,300 424.448,300 418.448,294 418.448,280" fill="#000000" stroke="#ffffff" stroke-width="1.2"/>
<text x="505.2" y="291" font-family="Georgia, 'Times New Roman', serif" font-size="10.5" font-weight="bold" font-style="italic" letter-spacing="0.6" fill="#ffffff" text-anchor="middle">BASH/SHELL SCRIPTING</text>
<polygon points="615.87,274 714.922,274 720.922,280 720.922,294 714.922,300 615.87,300 609.87,294 609.87,280" fill="#000000" stroke="#7C3AED" stroke-width="1.2"/>
<text x="665.4" y="291" font-family="Georgia, 'Times New Roman', serif" font-size="10.5" font-weight="bold" font-style="italic" letter-spacing="0.6" fill="#7C3AED" text-anchor="middle">POWERSHELL</text>
<polygon points="744.922,274 783.548,274 789.548,280 789.548,294 783.548,300 744.922,300 738.922,294 738.922,280" fill="#000000" stroke="#ffffff" stroke-width="1.2"/>
<text x="764.2" y="291" font-family="Georgia, 'Times New Roman', serif" font-size="10.5" font-weight="bold" font-style="italic" letter-spacing="0.6" fill="#ffffff" text-anchor="middle">SQL</text>
<polygon points="813.548,274 853.794,274 859.794,280 859.794,294 853.794,300 813.548,300 807.548,294 807.548,280" fill="#000000" stroke="#ffffff" stroke-width="1.2"/>
<text x="833.7" y="291" font-family="Georgia, 'Times New Roman', serif" font-size="10.5" font-weight="bold" font-style="italic" letter-spacing="0.6" fill="#ffffff" text-anchor="middle">PHP</text>
<polygon points="883.794,274 1029.34,274 1035.34,280 1035.34,294 1029.34,300 883.794,300 877.794,294 877.794,280" fill="#000000" stroke="#ffffff" stroke-width="1.2"/>
<text x="956.6" y="291" font-family="Georgia, 'Times New Roman', serif" font-size="10.5" font-weight="bold" font-style="italic" letter-spacing="0.6" fill="#ffffff" text-anchor="middle">AES-256 ENCRYPTION</text>
<polygon points="180.885,310 304.56100000000004,310 310.56100000000004,316 310.56100000000004,330 304.56100000000004,336 180.885,336 174.885,330 174.885,316" fill="#000000" stroke="#ffffff" stroke-width="1.2"/>
<text x="242.7" y="327" font-family="Georgia, 'Times New Roman', serif" font-size="10.5" font-weight="bold" font-style="italic" letter-spacing="0.6" fill="#ffffff" text-anchor="middle">STEGANOGRAPHY</text>
<polygon points="334.56100000000004,310 524.657,310 530.657,316 530.657,330 524.657,336 334.56100000000004,336 328.56100000000004,330 328.56100000000004,316" fill="#000000" stroke="#7C3AED" stroke-width="1.2"/>
<text x="429.6" y="327" font-family="Georgia, 'Times New Roman', serif" font-size="10.5" font-weight="bold" font-style="italic" letter-spacing="0.6" fill="#7C3AED" text-anchor="middle">ZERO TRUST ARCHITECTURE</text>
<polygon points="554.657,310 787.791,310 793.791,316 793.791,330 787.791,336 554.657,336 548.657,330 548.657,316" fill="#000000" stroke="#7C3AED" stroke-width="1.2"/>
<text x="671.2" y="327" font-family="Georgia, 'Times New Roman', serif" font-size="10.5" font-weight="bold" font-style="italic" letter-spacing="0.6" fill="#7C3AED" text-anchor="middle">EDR (CROWDSTRIKE/SENTINELONE)</text>
<polygon points="817.791,310 969.115,310 975.115,316 975.115,330 969.115,336 817.791,336 811.791,330 811.791,316" fill="#000000" stroke="#7C3AED" stroke-width="1.2"/>
<text x="893.5" y="327" font-family="Georgia, 'Times New Roman', serif" font-size="10.5" font-weight="bold" font-style="italic" letter-spacing="0.6" fill="#7C3AED" text-anchor="middle">24X7 SOC OPERATIONS</text>
<line x1="40" y1="354" x2="1110" y2="354" stroke="#333333" stroke-width="1"/>
</svg>