<svg viewBox="0 0 2747 867" xmlns="http://www.w3.org/2000/svg" role="img">
<defs>
<clipPath id="innerClip"><polygon points="81.2,33.4 2665.9,33.4 2713.7,81.2 2713.7,785.8 2665.9,833.6 81.2,833.6 33.4,785.8 33.4,81.2"/></clipPath>
<pattern id="hazard" width="10" height="10" patternUnits="userSpaceOnUse" patternTransform="rotate(45)">
<rect width="10" height="10" fill="#fff"/>
<rect width="5" height="10" fill="#000"/>
</pattern>
</defs>

<rect x="2" y="2" width="2743" height="863" fill="#000000"/>

<polygon points="62.1,9.6 2685.0,9.6 2737.6,62.1 2737.6,804.9 2685.0,857.4 62.1,857.4 9.6,804.9 9.6,62.1" fill="none" stroke="#ffffff" stroke-width="13.4"/>
<polygon points="81.2,33.4 2665.9,33.4 2713.7,81.2 2713.7,785.8 2665.9,833.6 81.2,833.6 33.4,785.8 33.4,81.2" fill="none" stroke="#ffffff" stroke-width="5.3"/>

<polygon points="62.1,9.6 9.6,62.1 9.6,33.4 33.4,9.6" fill="#E8231A"/>
<polygon points="2685.0,9.6 2737.6,62.1 2737.6,33.4 2713.7,9.6" fill="#E8231A"/>
<polygon points="62.1,857.4 9.6,804.9 9.6,833.6 33.4,857.4" fill="#E8231A"/>
<polygon points="2685.0,857.4 2737.6,804.9 2737.6,833.6 2713.7,857.4" fill="#E8231A"/>

<rect x="143.3" y="0" width="191.1" height="9.6" fill="url(#hazard)"/>
<rect x="2412.7" y="0" width="191.1" height="9.6" fill="url(#hazard)"/>
<rect x="143.3" y="857.4" width="191.1" height="9.6" fill="url(#hazard)"/>
<rect x="2412.7" y="857.4" width="191.1" height="9.6" fill="url(#hazard)"/>

<circle cx="105.1" cy="105.1" r="21.5" fill="none" stroke="#fff" stroke-width="6.2"/>
<circle cx="105.1" cy="105.1" r="7.2" fill="#E8231A"/>
<circle cx="2642.0" cy="105.1" r="21.5" fill="none" stroke="#fff" stroke-width="6.2"/>
<circle cx="2642.0" cy="105.1" r="7.2" fill="#E8231A"/>
<circle cx="105.1" cy="761.9" r="21.5" fill="none" stroke="#fff" stroke-width="6.2"/>
<circle cx="105.1" cy="761.9" r="7.2" fill="#E8231A"/>
<circle cx="2642.0" cy="761.9" r="21.5" fill="none" stroke="#fff" stroke-width="6.2"/>
<circle cx="2642.0" cy="761.9" r="7.2" fill="#E8231A"/>

<g clip-path="url(#innerClip)">
<polygon points="316.3599999999999,150 523.2199999999999,150 533.2199999999999,160 533.2199999999999,205 523.2199999999999,215 316.3599999999999,215 306.3599999999999,205 306.3599999999999,160" fill="#000000" stroke="#E8231A" stroke-width="1.7"/>
<text x="419.8" y="182.5" dominant-baseline="central" font-family="Georgia, 'Times New Roman', serif" font-size="34" font-weight="bold" font-style="italic" letter-spacing="0.9" fill="#E8231A" text-anchor="middle">SPLUNK</text>
<polygon points="565.2199999999999,150 1084.8,150 1094.8,160 1094.8,205 1084.8,215 565.2199999999999,215 555.2199999999999,205 555.2199999999999,160" fill="#000000" stroke="#E8231A" stroke-width="1.7"/>
<text x="825.0" y="182.5" dominant-baseline="central" font-family="Georgia, 'Times New Roman', serif" font-size="34" font-weight="bold" font-style="italic" letter-spacing="0.9" fill="#E8231A" text-anchor="middle">MICROSOFT SENTINEL</text>
<polygon points="1126.8,150 1568.1999999999998,150 1578.1999999999998,160 1578.1999999999998,205 1568.1999999999998,215 1126.8,215 1116.8,205 1116.8,160" fill="#000000" stroke="#E8231A" stroke-width="1.7"/>
<text x="1347.5" y="182.5" dominant-baseline="central" font-family="Georgia, 'Times New Roman', serif" font-size="34" font-weight="bold" font-style="italic" letter-spacing="0.9" fill="#E8231A" text-anchor="middle">SIEM MONITORING</text>
<polygon points="1610.1999999999998,150 1973.4199999999998,150 1983.4199999999998,160 1983.4199999999998,205 1973.4199999999998,215 1610.1999999999998,215 1600.1999999999998,205 1600.1999999999998,160" fill="#000000" stroke="#E8231A" stroke-width="1.7"/>
<text x="1791.8" y="182.5" dominant-baseline="central" font-family="Georgia, 'Times New Roman', serif" font-size="34" font-weight="bold" font-style="italic" letter-spacing="0.9" fill="#E8231A" text-anchor="middle">LOG ANALYSIS</text>
<polygon points="2015.4199999999998,150 2430.7599999999998,150 2440.7599999999998,160 2440.7599999999998,205 2430.7599999999998,215 2015.4199999999998,215 2005.4199999999998,205 2005.4199999999998,160" fill="#000000" stroke="#E8231A" stroke-width="1.7"/>
<text x="2223.1" y="182.5" dominant-baseline="central" font-family="Georgia, 'Times New Roman', serif" font-size="34" font-weight="bold" font-style="italic" letter-spacing="0.9" fill="#E8231A" text-anchor="middle">THREAT HUNTING</text>
<polygon points="160.0,231 523.22,231 533.22,241 533.22,286 523.22,296 160.0,296 150.0,286 150.0,241" fill="#000000" stroke="#ffffff" stroke-width="1.7"/>
<text x="341.6" y="263.5" dominant-baseline="central" font-family="Georgia, 'Times New Roman', serif" font-size="34" font-weight="bold" font-style="italic" letter-spacing="0.9" fill="#ffffff" text-anchor="middle">ALERT TRIAGE</text>
<polygon points="565.22,231 1058.74,231 1068.74,241 1068.74,286 1058.74,296 565.22,296 555.22,286 555.22,241" fill="#000000" stroke="#E8231A" stroke-width="1.7"/>
<text x="812.0" y="263.5" dominant-baseline="central" font-family="Georgia, 'Times New Roman', serif" font-size="34" font-weight="bold" font-style="italic" letter-spacing="0.9" fill="#E8231A" text-anchor="middle">INCIDENT RESPONSE</text>
<polygon points="1100.74,231 1568.2,231 1578.2,241 1578.2,286 1568.2,296 1100.74,296 1090.74,286 1090.74,241" fill="#000000" stroke="#ffffff" stroke-width="1.7"/>
<text x="1334.5" y="263.5" dominant-baseline="central" font-family="Georgia, 'Times New Roman', serif" font-size="34" font-weight="bold" font-style="italic" letter-spacing="0.9" fill="#ffffff" text-anchor="middle">IOC/IOA ANALYSIS</text>
<polygon points="1610.2,231 2077.66,231 2087.66,241 2087.66,286 2077.66,296 1610.2,296 1600.2,286 1600.2,241" fill="#000000" stroke="#E8231A" stroke-width="1.7"/>
<text x="1843.9" y="263.5" dominant-baseline="central" font-family="Georgia, 'Times New Roman', serif" font-size="34" font-weight="bold" font-style="italic" letter-spacing="0.9" fill="#E8231A" text-anchor="middle">MITRE ATT&amp;CK</text>
<polygon points="2119.66,231 2587.12,231 2597.12,241 2597.12,286 2587.12,296 2119.66,296 2109.66,286 2109.66,241" fill="#000000" stroke="#ffffff" stroke-width="1.7"/>
<text x="2353.4" y="263.5" dominant-baseline="central" font-family="Georgia, 'Times New Roman', serif" font-size="34" font-weight="bold" font-style="italic" letter-spacing="0.9" fill="#ffffff" text-anchor="middle">CYBER KILL CHAIN</text>
<polygon points="217.99,312 946.05,312 956.05,322 956.05,367 946.05,377 217.99,377 207.99,367 207.99,322" fill="#000000" stroke="#ffffff" stroke-width="1.7"/>
<text x="582.0" y="344.5" dominant-baseline="central" font-family="Georgia, 'Times New Roman', serif" font-size="34" font-weight="bold" font-style="italic" letter-spacing="0.9" fill="#ffffff" text-anchor="middle">PLAYBOOK/RUNBOOK EXECUTION</text>
<polygon points="988.05,312 1273.09,312 1283.09,322 1283.09,367 1273.09,377 988.05,377 978.05,367 978.05,322" fill="#000000" stroke="#E8231A" stroke-width="1.7"/>
<text x="1130.6" y="344.5" dominant-baseline="central" font-family="Georgia, 'Times New Roman', serif" font-size="34" font-weight="bold" font-style="italic" letter-spacing="0.9" fill="#E8231A" text-anchor="middle">WIRESHARK</text>
<polygon points="1315.09,312 1469.83,312 1479.83,322 1479.83,367 1469.83,377 1315.09,377 1305.09,367 1305.09,322" fill="#000000" stroke="#E8231A" stroke-width="1.7"/>
<text x="1392.5" y="344.5" dominant-baseline="central" font-family="Georgia, 'Times New Roman', serif" font-size="34" font-weight="bold" font-style="italic" letter-spacing="0.9" fill="#E8231A" text-anchor="middle">NMAP</text>
<polygon points="1511.83,312 1822.9299999999998,312 1832.9299999999998,322 1832.9299999999998,367 1822.9299999999998,377 1511.83,377 1501.83,367 1501.83,322" fill="#000000" stroke="#E8231A" stroke-width="1.7"/>
<text x="1667.4" y="344.5" dominant-baseline="central" font-family="Georgia, 'Times New Roman', serif" font-size="34" font-weight="bold" font-style="italic" letter-spacing="0.9" fill="#E8231A" text-anchor="middle">BURP SUITE</text>
<polygon points="1864.9299999999998,312 2176.0299999999997,312 2186.0299999999997,322 2186.0299999999997,367 2176.0299999999997,377 1864.9299999999998,377 1854.9299999999998,367 1854.9299999999998,322" fill="#000000" stroke="#E8231A" stroke-width="1.7"/>
<text x="2020.5" y="344.5" dominant-baseline="central" font-family="Georgia, 'Times New Roman', serif" font-size="34" font-weight="bold" font-style="italic" letter-spacing="0.9" fill="#E8231A" text-anchor="middle">METASPLOIT</text>
<polygon points="2218.0299999999997,312 2529.1299999999997,312 2539.1299999999997,322 2539.1299999999997,367 2529.1299999999997,377 2218.0299999999997,377 2208.0299999999997,367 2208.0299999999997,322" fill="#000000" stroke="#E8231A" stroke-width="1.7"/>
<text x="2373.6" y="344.5" dominant-baseline="central" font-family="Georgia, 'Times New Roman', serif" font-size="34" font-weight="bold" font-style="italic" letter-spacing="0.9" fill="#E8231A" text-anchor="middle">KALI LINUX</text>
<polygon points="257.0799999999999,393 463.93999999999994,393 473.93999999999994,403 473.93999999999994,448 463.93999999999994,458 257.0799999999999,458 247.07999999999993,448 247.07999999999993,403" fill="#000000" stroke="#ffffff" stroke-width="1.7"/>
<text x="360.5" y="425.5" dominant-baseline="central" font-family="Georgia, 'Times New Roman', serif" font-size="34" font-weight="bold" font-style="italic" letter-spacing="0.9" fill="#ffffff" text-anchor="middle">NESSUS</text>
<polygon points="505.93999999999994,393 686.74,393 696.74,403 696.74,448 686.74,458 505.93999999999994,458 495.93999999999994,448 495.93999999999994,403" fill="#000000" stroke="#ffffff" stroke-width="1.7"/>
<text x="596.3" y="425.5" dominant-baseline="central" font-family="Georgia, 'Times New Roman', serif" font-size="34" font-weight="bold" font-style="italic" letter-spacing="0.9" fill="#ffffff" text-anchor="middle">OSINT</text>
<polygon points="728.74,393 987.72,393 997.72,403 997.72,448 987.72,458 728.74,458 718.74,448 718.74,403" fill="#000000" stroke="#E8231A" stroke-width="1.7"/>
<text x="858.2" y="425.5" dominant-baseline="central" font-family="Georgia, 'Times New Roman', serif" font-size="34" font-weight="bold" font-style="italic" letter-spacing="0.9" fill="#E8231A" text-anchor="middle">NIST CSF</text>
<polygon points="1029.72,393 1392.94,393 1402.94,403 1402.94,448 1392.94,458 1029.72,458 1019.72,448 1019.72,403" fill="#000000" stroke="#E8231A" stroke-width="1.7"/>
<text x="1211.3" y="425.5" dominant-baseline="central" font-family="Georgia, 'Times New Roman', serif" font-size="34" font-weight="bold" font-style="italic" letter-spacing="0.9" fill="#E8231A" text-anchor="middle">OWASP TOP 10</text>
<polygon points="1434.94,393 1798.16,393 1808.16,403 1808.16,448 1798.16,458 1434.94,458 1424.94,448 1424.94,403" fill="#000000" stroke="#E8231A" stroke-width="1.7"/>
<text x="1616.6" y="425.5" dominant-baseline="central" font-family="Georgia, 'Times New Roman', serif" font-size="34" font-weight="bold" font-style="italic" letter-spacing="0.9" fill="#E8231A" text-anchor="middle">CVSS SCORING</text>
<polygon points="1840.16,393 2490.04,393 2500.04,403 2500.04,448 2490.04,458 1840.16,458 1830.16,448 1830.16,403" fill="#000000" stroke="#E8231A" stroke-width="1.7"/>
<text x="2165.1" y="425.5" dominant-baseline="central" font-family="Georgia, 'Times New Roman', serif" font-size="34" font-weight="bold" font-style="italic" letter-spacing="0.9" fill="#E8231A" text-anchor="middle">ZERO TRUST ARCHITECTURE</text>
<polygon points="244.04999999999995,474 919.99,474 929.99,484 929.99,529 919.99,539 244.04999999999995,539 234.04999999999995,529 234.04999999999995,484" fill="#000000" stroke="#E8231A" stroke-width="1.7"/>
<text x="582.0" y="506.5" dominant-baseline="central" font-family="Georgia, 'Times New Roman', serif" font-size="34" font-weight="bold" font-style="italic" letter-spacing="0.9" fill="#E8231A" text-anchor="middle">VULNERABILITY ASSESSMENT</text>
<polygon points="961.99,474 1168.85,474 1178.85,484 1178.85,529 1168.85,539 961.99,539 951.99,529 951.99,484" fill="#000000" stroke="#E8231A" stroke-width="1.7"/>
<text x="1065.4" y="506.5" dominant-baseline="central" font-family="Georgia, 'Times New Roman', serif" font-size="34" font-weight="bold" font-style="italic" letter-spacing="0.9" fill="#E8231A" text-anchor="middle">TCP/IP</text>
<polygon points="1210.85,474 1339.53,474 1349.53,484 1349.53,529 1339.53,539 1210.85,539 1200.85,529 1200.85,484" fill="#000000" stroke="#ffffff" stroke-width="1.7"/>
<text x="1275.2" y="506.5" dominant-baseline="central" font-family="Georgia, 'Times New Roman', serif" font-size="34" font-weight="bold" font-style="italic" letter-spacing="0.9" fill="#ffffff" text-anchor="middle">DNS</text>
<polygon points="1381.53,474 1692.63,474 1702.63,484 1702.63,529 1692.63,539 1381.53,539 1371.53,529 1371.53,484" fill="#000000" stroke="#ffffff" stroke-width="1.7"/>
<text x="1537.1" y="506.5" dominant-baseline="central" font-family="Georgia, 'Times New Roman', serif" font-size="34" font-weight="bold" font-style="italic" letter-spacing="0.9" fill="#ffffff" text-anchor="middle">HTTP/HTTPS</text>
<polygon points="1734.63,474 2019.67,474 2029.67,484 2029.67,529 2019.67,539 1734.63,539 1724.63,529 1724.63,484" fill="#000000" stroke="#E8231A" stroke-width="1.7"/>
<text x="1877.2" y="506.5" dominant-baseline="central" font-family="Georgia, 'Times New Roman', serif" font-size="34" font-weight="bold" font-style="italic" letter-spacing="0.9" fill="#E8231A" text-anchor="middle">FIREWALLS</text>
<polygon points="2061.67,474 2503.07,474 2513.07,484 2513.07,529 2503.07,539 2061.67,539 2051.67,529 2051.67,484" fill="#000000" stroke="#ffffff" stroke-width="1.7"/>
<text x="2282.4" y="506.5" dominant-baseline="central" font-family="Georgia, 'Times New Roman', serif" font-size="34" font-weight="bold" font-style="italic" letter-spacing="0.9" fill="#ffffff" text-anchor="middle">PACKET ANALYSIS</text>
<polygon points="191.92999999999984,555 659.3899999999999,555 669.3899999999999,565 669.3899999999999,610 659.3899999999999,620 191.92999999999984,620 181.92999999999984,610 181.92999999999984,565" fill="#000000" stroke="#ffffff" stroke-width="1.7"/>
<text x="425.7" y="587.5" dominant-baseline="central" font-family="Georgia, 'Times New Roman', serif" font-size="34" font-weight="bold" font-style="italic" letter-spacing="0.9" fill="#ffffff" text-anchor="middle">NETWORK SCANNING</text>
<polygon points="701.3899999999999,555 908.2499999999999,555 918.2499999999999,565 918.2499999999999,610 908.2499999999999,620 701.3899999999999,620 691.3899999999999,610 691.3899999999999,565" fill="#000000" stroke="#E8231A" stroke-width="1.7"/>
<text x="804.8" y="587.5" dominant-baseline="central" font-family="Georgia, 'Times New Roman', serif" font-size="34" font-weight="bold" font-style="italic" letter-spacing="0.9" fill="#E8231A" text-anchor="middle">PYTHON</text>
<polygon points="950.2499999999999,555 1521.9499999999998,555 1531.9499999999998,565 1531.9499999999998,610 1521.9499999999998,620 950.2499999999999,620 940.2499999999999,610 940.2499999999999,565" fill="#000000" stroke="#ffffff" stroke-width="1.7"/>
<text x="1236.1" y="587.5" dominant-baseline="central" font-family="Georgia, 'Times New Roman', serif" font-size="34" font-weight="bold" font-style="italic" letter-spacing="0.9" fill="#ffffff" text-anchor="middle">BASH/SHELL SCRIPTING</text>
<polygon points="1563.9499999999998,555 1875.0499999999997,555 1885.0499999999997,565 1885.0499999999997,610 1875.0499999999997,620 1563.9499999999998,620 1553.9499999999998,610 1553.9499999999998,565" fill="#000000" stroke="#E8231A" stroke-width="1.7"/>
<text x="1719.5" y="587.5" dominant-baseline="central" font-family="Georgia, 'Times New Roman', serif" font-size="34" font-weight="bold" font-style="italic" letter-spacing="0.9" fill="#E8231A" text-anchor="middle">POWERSHELL</text>
<polygon points="1917.0499999999997,555 2202.0899999999997,555 2212.0899999999997,565 2212.0899999999997,610 2202.0899999999997,620 1917.0499999999997,620 1907.0499999999997,610 1907.0499999999997,565" fill="#000000" stroke="#ffffff" stroke-width="1.7"/>
<text x="2059.6" y="587.5" dominant-baseline="central" font-family="Georgia, 'Times New Roman', serif" font-size="34" font-weight="bold" font-style="italic" letter-spacing="0.9" fill="#ffffff" text-anchor="middle">LINUX CLI</text>
<polygon points="2244.0899999999997,555 2555.1899999999996,555 2565.1899999999996,565 2565.1899999999996,610 2555.1899999999996,620 2244.0899999999997,620 2234.0899999999997,610 2234.0899999999997,565" fill="#000000" stroke="#ffffff" stroke-width="1.7"/>
<text x="2399.6" y="587.5" dominant-baseline="central" font-family="Georgia, 'Times New Roman', serif" font-size="34" font-weight="bold" font-style="italic" letter-spacing="0.9" fill="#ffffff" text-anchor="middle">AUTOMATION</text>
<polygon points="382.79999999999995,636 1189.04,636 1199.04,646 1199.04,691 1189.04,701 382.79999999999995,701 372.79999999999995,691 372.79999999999995,646" fill="#000000" stroke="#E8231A" stroke-width="1.7"/>
<text x="785.9" y="668.5" dominant-baseline="central" font-family="Georgia, 'Times New Roman', serif" font-size="34" font-weight="bold" font-style="italic" letter-spacing="0.9" fill="#E8231A" text-anchor="middle">EDR (CROWDSTRIKE/SENTINELONE)</text>
<polygon points="1231.04,636 1776.6799999999998,636 1786.6799999999998,646 1786.6799999999998,691 1776.6799999999998,701 1231.04,701 1221.04,691 1221.04,646" fill="#000000" stroke="#E8231A" stroke-width="1.7"/>
<text x="1503.9" y="668.5" dominant-baseline="central" font-family="Georgia, 'Times New Roman', serif" font-size="34" font-weight="bold" font-style="italic" letter-spacing="0.9" fill="#E8231A" text-anchor="middle">24X7 SOC OPERATIONS</text>
<polygon points="1818.6799999999998,636 2364.3199999999997,636 2374.3199999999997,646 2374.3199999999997,691 2364.3199999999997,701 1818.6799999999998,701 1808.6799999999998,691 1808.6799999999998,646" fill="#000000" stroke="#ffffff" stroke-width="1.7"/>
<text x="2091.5" y="668.5" dominant-baseline="central" font-family="Georgia, 'Times New Roman', serif" font-size="34" font-weight="bold" font-style="italic" letter-spacing="0.9" fill="#ffffff" text-anchor="middle">INCIDENT ESCALATION</text>
</g>

<line x1="81.2" y1="814.4" x2="2665.9" y2="814.4" stroke="#333333" stroke-width="2.4"/>
</svg>