<svg viewBox="0 0 1300 388" xmlns="http://www.w3.org/2000/svg">
<defs>
<pattern id="grid" width="24" height="24" patternUnits="userSpaceOnUse"><path d="M 24 0 L 0 0 0 24" fill="none" stroke="#1a1a1a" stroke-width="1"/></pattern>
</defs>
<rect width="1300" height="388" fill="#000000"/>
<rect width="1300" height="388" fill="url(#grid)"/>
<polygon points="34,12 1266,12 1288,34 1288,354 1266,376 34,376 12,354 12,34" fill="none" stroke="#ffffff" stroke-width="2"/>
<polygon points="44,20 1256,20 1278,42 1278,346 1256,368 44,368 22,346 22,42" fill="none" stroke="#555555" stroke-width="1"/>
<g stroke="#ffffff" stroke-width="3" fill="none">
<path d="M6,40 L6,6 L40,6"><animate attributeName="stroke-opacity" values="1;0.25;1" dur="2.4s" begin="0s" repeatCount="indefinite"/></path>
<path d="M1260,6 L1294,6 L1294,40"><animate attributeName="stroke-opacity" values="1;0.25;1" dur="2.4s" begin="0.6s" repeatCount="indefinite"/></path>
<path d="M1294,348 L1294,382 L1260,382"><animate attributeName="stroke-opacity" values="1;0.25;1" dur="2.4s" begin="1.2s" repeatCount="indefinite"/></path>
<path d="M40,382 L6,382 L6,348"><animate attributeName="stroke-opacity" values="1;0.25;1" dur="2.4s" begin="1.8s" repeatCount="indefinite"/></path>
</g>
<text x="650.0" y="52" font-family="Courier New, monospace" font-size="34" font-weight="bold" fill="#bbbbbb" text-anchor="middle" letter-spacing="6" opacity="0.35">CYBER ARSENAL<animate attributeName="x" values="650.0;644.0;650.0;656.0;650.0" dur="3.2s" repeatCount="indefinite"/></text>
<text x="650.0" y="49" font-family="Courier New, monospace" font-size="34" font-weight="bold" fill="#888888" text-anchor="middle" letter-spacing="6" opacity="0.3">CYBER ARSENAL<animate attributeName="x" values="650.0;657.0;650.0;643.0;650.0" dur="2.6s" repeatCount="indefinite"/></text>
<text x="650.0" y="50" font-family="Courier New, monospace" font-size="34" font-weight="bold" fill="#ffffff" text-anchor="middle" letter-spacing="6">CYBER ARSENAL<animate attributeName="opacity" values="1;1;0.8;1;1" dur="2.8s" repeatCount="indefinite"/></text>
<line x1="490.0" y1="66" x2="810.0" y2="66" stroke="#ffffff" stroke-width="1.5"><animate attributeName="stroke-opacity" values="1;0.2;1" dur="1.6s" repeatCount="indefinite"/></line>
<text x="650.0" y="92" font-family="Courier New, monospace" font-size="13" letter-spacing="2" fill="#aaaaaa" text-anchor="middle">&gt; SECURITY MODULES LOADED - SCANNING SKILLSET</text>
<rect x="875.0" y="80" width="8" height="15" fill="#ffffff"><animate attributeName="opacity" values="1;0;1" dur="0.9s" repeatCount="indefinite"/></rect>
<line x1="40" y1="118" x2="1260" y2="118" stroke="#333333" stroke-width="1"/>
<polygon points="115.5,142.0 171.5,142.0 177.5,148.0 177.5,162.0 171.5,168.0 115.5,168.0 109.5,162.0 109.5,148.0" fill="#000000" stroke="#ff9500" stroke-width="1.2"/>
<text x="143.5" y="159.0" font-family="Arial, Helvetica, sans-serif" font-size="10.5" font-weight="bold" letter-spacing="0.6" fill="#ff9500" text-anchor="middle">SPLUNK</text>
<polygon points="191.5,142.0 226.5,142.0 232.5,148.0 232.5,162.0 226.5,168.0 191.5,168.0 185.5,162.0 185.5,148.0" fill="#000000" stroke="#ffffff" stroke-width="1.2"/>
<text x="209.0" y="159.0" font-family="Arial, Helvetica, sans-serif" font-size="10.5" font-weight="bold" letter-spacing="0.6" fill="#ffffff" text-anchor="middle">SPL</text>
<polygon points="246.5,142.0 351.5,142.0 357.5,148.0 357.5,162.0 351.5,168.0 246.5,168.0 240.5,162.0 240.5,148.0" fill="#000000" stroke="#ffffff" stroke-width="1.2"/>
<text x="299.0" y="159.0" font-family="Arial, Helvetica, sans-serif" font-size="10.5" font-weight="bold" letter-spacing="0.6" fill="#ffffff" text-anchor="middle">LOG INGESTION</text>
<polygon points="371.5,142.0 462.5,142.0 468.5,148.0 468.5,162.0 462.5,168.0 371.5,168.0 365.5,162.0 365.5,148.0" fill="#000000" stroke="#ffffff" stroke-width="1.2"/>
<text x="417.0" y="159.0" font-family="Arial, Helvetica, sans-serif" font-size="10.5" font-weight="bold" letter-spacing="0.6" fill="#ffffff" text-anchor="middle">ALERT RULES</text>
<polygon points="482.5,142.0 566.5,142.0 572.5,148.0 572.5,162.0 566.5,168.0 482.5,168.0 476.5,162.0 476.5,148.0" fill="#000000" stroke="#ffffff" stroke-width="1.2"/>
<text x="524.5" y="159.0" font-family="Arial, Helvetica, sans-serif" font-size="10.5" font-weight="bold" letter-spacing="0.6" fill="#ffffff" text-anchor="middle">DASHBOARDS</text>
<polygon points="586.5,142.0 726.5,142.0 732.5,148.0 732.5,162.0 726.5,168.0 586.5,168.0 580.5,162.0 580.5,148.0" fill="#000000" stroke="#ff9500" stroke-width="1.2"/>
<text x="656.5" y="159.0" font-family="Arial, Helvetica, sans-serif" font-size="10.5" font-weight="bold" letter-spacing="0.6" fill="#ff9500" text-anchor="middle">MICROSOFT SENTINEL</text>
<polygon points="746.5,142.0 865.5,142.0 871.5,148.0 871.5,162.0 865.5,168.0 746.5,168.0 740.5,162.0 740.5,148.0" fill="#000000" stroke="#ff9500" stroke-width="1.2"/>
<text x="806.0" y="159.0" font-family="Arial, Helvetica, sans-serif" font-size="10.5" font-weight="bold" letter-spacing="0.6" fill="#ff9500" text-anchor="middle">SIEM MONITORING</text>
<polygon points="885.5,142.0 983.5,142.0 989.5,148.0 989.5,162.0 983.5,168.0 885.5,168.0 879.5,162.0 879.5,148.0" fill="#000000" stroke="#ffffff" stroke-width="1.2"/>
<text x="934.5" y="159.0" font-family="Arial, Helvetica, sans-serif" font-size="10.5" font-weight="bold" letter-spacing="0.6" fill="#ffffff" text-anchor="middle">ALERT TRIAGE</text>
<polygon points="1003.5,142.0 1101.5,142.0 1107.5,148.0 1107.5,162.0 1101.5,168.0 1003.5,168.0 997.5,162.0 997.5,148.0" fill="#000000" stroke="#ff9500" stroke-width="1.2"/>
<text x="1052.5" y="159.0" font-family="Arial, Helvetica, sans-serif" font-size="10.5" font-weight="bold" letter-spacing="0.6" fill="#ff9500" text-anchor="middle">LOG ANALYSIS</text>
<polygon points="1121.5,142.0 1184.5,142.0 1190.5,148.0 1190.5,162.0 1184.5,168.0 1121.5,168.0 1115.5,162.0 1115.5,148.0" fill="#000000" stroke="#ff9500" stroke-width="1.2"/>
<text x="1153.0" y="159.0" font-family="Arial, Helvetica, sans-serif" font-size="10.5" font-weight="bold" letter-spacing="0.6" fill="#ff9500" text-anchor="middle">IDS/IPS</text>
<polygon points="62.0,178.0 188.0,178.0 194.0,184.0 194.0,198.0 188.0,204.0 62.0,204.0 56.0,198.0 56.0,184.0" fill="#000000" stroke="#ffffff" stroke-width="1.2"/>
<text x="125.0" y="195.0" font-family="Arial, Helvetica, sans-serif" font-size="10.5" font-weight="bold" letter-spacing="0.6" fill="#ffffff" text-anchor="middle">IOC/IOA ANALYSIS</text>
<polygon points="208.0,178.0 320.0,178.0 326.0,184.0 326.0,198.0 320.0,204.0 208.0,204.0 202.0,198.0 202.0,184.0" fill="#000000" stroke="#ff9500" stroke-width="1.2"/>
<text x="264.0" y="195.0" font-family="Arial, Helvetica, sans-serif" font-size="10.5" font-weight="bold" letter-spacing="0.6" fill="#ff9500" text-anchor="middle">THREAT HUNTING</text>
<polygon points="340.0,178.0 473.0,178.0 479.0,184.0 479.0,198.0 473.0,204.0 340.0,204.0 334.0,198.0 334.0,184.0" fill="#000000" stroke="#ff9500" stroke-width="1.2"/>
<text x="406.5" y="195.0" font-family="Arial, Helvetica, sans-serif" font-size="10.5" font-weight="bold" letter-spacing="0.6" fill="#ff9500" text-anchor="middle">INCIDENT RESPONSE</text>
<polygon points="493.0,178.0 598.0,178.0 604.0,184.0 604.0,198.0 598.0,204.0 493.0,204.0 487.0,198.0 487.0,184.0" fill="#000000" stroke="#ffffff" stroke-width="1.2"/>
<text x="545.5" y="195.0" font-family="Arial, Helvetica, sans-serif" font-size="10.5" font-weight="bold" letter-spacing="0.6" fill="#ffffff" text-anchor="middle">PCAP ANALYSIS</text>
<polygon points="618.0,178.0 800.0,178.0 806.0,184.0 806.0,198.0 800.0,204.0 618.0,204.0 612.0,198.0 612.0,184.0" fill="#000000" stroke="#ff9500" stroke-width="1.2"/>
<text x="709.0" y="195.0" font-family="Arial, Helvetica, sans-serif" font-size="10.5" font-weight="bold" letter-spacing="0.6" fill="#ff9500" text-anchor="middle">VULNERABILITY ASSESSMENT</text>
<polygon points="820.0,178.0 855.0,178.0 861.0,184.0 861.0,198.0 855.0,204.0 820.0,204.0 814.0,198.0 814.0,184.0" fill="#000000" stroke="#ffffff" stroke-width="1.2"/>
<text x="837.5" y="195.0" font-family="Arial, Helvetica, sans-serif" font-size="10.5" font-weight="bold" letter-spacing="0.6" fill="#ffffff" text-anchor="middle">RCA</text>
<polygon points="875.0,178.0 1022.0,178.0 1028.0,184.0 1028.0,198.0 1022.0,204.0 875.0,204.0 869.0,198.0 869.0,184.0" fill="#000000" stroke="#ffffff" stroke-width="1.2"/>
<text x="948.5" y="195.0" font-family="Arial, Helvetica, sans-serif" font-size="10.5" font-weight="bold" letter-spacing="0.6" fill="#ffffff" text-anchor="middle">INCIDENT ESCALATION</text>
<polygon points="1042.0,178.0 1238.0,178.0 1244.0,184.0 1244.0,198.0 1238.0,204.0 1042.0,204.0 1036.0,198.0 1036.0,184.0" fill="#000000" stroke="#ffffff" stroke-width="1.2"/>
<text x="1140.0" y="195.0" font-family="Arial, Helvetica, sans-serif" font-size="10.5" font-weight="bold" letter-spacing="0.6" fill="#ffffff" text-anchor="middle">PLAYBOOK/RUNBOOK EXECUTION</text>
<polygon points="57.0,214.0 106.0,214.0 112.0,220.0 112.0,234.0 106.0,240.0 57.0,240.0 51.0,234.0 51.0,220.0" fill="#000000" stroke="#ffffff" stroke-width="1.2"/>
<text x="81.5" y="231.0" font-family="Arial, Helvetica, sans-serif" font-size="10.5" font-weight="bold" letter-spacing="0.6" fill="#ffffff" text-anchor="middle">OSINT</text>
<polygon points="126.0,214.0 203.0,214.0 209.0,220.0 209.0,234.0 203.0,240.0 126.0,240.0 120.0,234.0 120.0,220.0" fill="#000000" stroke="#ff9500" stroke-width="1.2"/>
<text x="164.5" y="231.0" font-family="Arial, Helvetica, sans-serif" font-size="10.5" font-weight="bold" letter-spacing="0.6" fill="#ff9500" text-anchor="middle">WIRESHARK</text>
<polygon points="223.0,214.0 265.0,214.0 271.0,220.0 271.0,234.0 265.0,240.0 223.0,240.0 217.0,234.0 217.0,220.0" fill="#000000" stroke="#ff9500" stroke-width="1.2"/>
<text x="244.0" y="231.0" font-family="Arial, Helvetica, sans-serif" font-size="10.5" font-weight="bold" letter-spacing="0.6" fill="#ff9500" text-anchor="middle">NMAP</text>
<polygon points="285.0,214.0 369.0,214.0 375.0,220.0 375.0,234.0 369.0,240.0 285.0,240.0 279.0,234.0 279.0,220.0" fill="#000000" stroke="#ff9500" stroke-width="1.2"/>
<text x="327.0" y="231.0" font-family="Arial, Helvetica, sans-serif" font-size="10.5" font-weight="bold" letter-spacing="0.6" fill="#ff9500" text-anchor="middle">BURP SUITE</text>
<polygon points="389.0,214.0 445.0,214.0 451.0,220.0 451.0,234.0 445.0,240.0 389.0,240.0 383.0,234.0 383.0,220.0" fill="#000000" stroke="#ffffff" stroke-width="1.2"/>
<text x="417.0" y="231.0" font-family="Arial, Helvetica, sans-serif" font-size="10.5" font-weight="bold" letter-spacing="0.6" fill="#ffffff" text-anchor="middle">NESSUS</text>
<polygon points="465.0,214.0 549.0,214.0 555.0,220.0 555.0,234.0 549.0,240.0 465.0,240.0 459.0,234.0 459.0,220.0" fill="#000000" stroke="#ff9500" stroke-width="1.2"/>
<text x="507.0" y="231.0" font-family="Arial, Helvetica, sans-serif" font-size="10.5" font-weight="bold" letter-spacing="0.6" fill="#ff9500" text-anchor="middle">METASPLOIT</text>
<polygon points="569.0,214.0 653.0,214.0 659.0,220.0 659.0,234.0 653.0,240.0 569.0,240.0 563.0,234.0 563.0,220.0" fill="#000000" stroke="#ff9500" stroke-width="1.2"/>
<text x="611.0" y="231.0" font-family="Arial, Helvetica, sans-serif" font-size="10.5" font-weight="bold" letter-spacing="0.6" fill="#ff9500" text-anchor="middle">KALI LINUX</text>
<polygon points="673.0,214.0 771.0,214.0 777.0,220.0 777.0,234.0 771.0,240.0 673.0,240.0 667.0,234.0 667.0,220.0" fill="#000000" stroke="#ff9500" stroke-width="1.2"/>
<text x="722.0" y="231.0" font-family="Arial, Helvetica, sans-serif" font-size="10.5" font-weight="bold" letter-spacing="0.6" fill="#ff9500" text-anchor="middle">MITRE ATT&amp;CK</text>
<polygon points="791.0,214.0 917.0,214.0 923.0,220.0 923.0,234.0 917.0,240.0 791.0,240.0 785.0,234.0 785.0,220.0" fill="#000000" stroke="#ffffff" stroke-width="1.2"/>
<text x="854.0" y="231.0" font-family="Arial, Helvetica, sans-serif" font-size="10.5" font-weight="bold" letter-spacing="0.6" fill="#ffffff" text-anchor="middle">CYBER KILL CHAIN</text>
<polygon points="937.0,214.0 1035.0,214.0 1041.0,220.0 1041.0,234.0 1035.0,240.0 937.0,240.0 931.0,234.0 931.0,220.0" fill="#000000" stroke="#ff9500" stroke-width="1.2"/>
<text x="986.0" y="231.0" font-family="Arial, Helvetica, sans-serif" font-size="10.5" font-weight="bold" letter-spacing="0.6" fill="#ff9500" text-anchor="middle">OWASP TOP 10</text>
<polygon points="1055.0,214.0 1125.0,214.0 1131.0,220.0 1131.0,234.0 1125.0,240.0 1055.0,240.0 1049.0,234.0 1049.0,220.0" fill="#000000" stroke="#ff9500" stroke-width="1.2"/>
<text x="1090.0" y="231.0" font-family="Arial, Helvetica, sans-serif" font-size="10.5" font-weight="bold" letter-spacing="0.6" fill="#ff9500" text-anchor="middle">NIST CSF</text>
<polygon points="1145.0,214.0 1243.0,214.0 1249.0,220.0 1249.0,234.0 1243.0,240.0 1145.0,240.0 1139.0,234.0 1139.0,220.0" fill="#000000" stroke="#ff9500" stroke-width="1.2"/>
<text x="1194.0" y="231.0" font-family="Arial, Helvetica, sans-serif" font-size="10.5" font-weight="bold" letter-spacing="0.6" fill="#ff9500" text-anchor="middle">CVSS SCORING</text>
<polygon points="67.5,250.0 123.5,250.0 129.5,256.0 129.5,270.0 123.5,276.0 67.5,276.0 61.5,270.0 61.5,256.0" fill="#000000" stroke="#ff9500" stroke-width="1.2"/>
<text x="95.5" y="267.0" font-family="Arial, Helvetica, sans-serif" font-size="10.5" font-weight="bold" letter-spacing="0.6" fill="#ff9500" text-anchor="middle">TCP/IP</text>
<polygon points="143.5,250.0 178.5,250.0 184.5,256.0 184.5,270.0 178.5,276.0 143.5,276.0 137.5,270.0 137.5,256.0" fill="#000000" stroke="#ffffff" stroke-width="1.2"/>
<text x="161.0" y="267.0" font-family="Arial, Helvetica, sans-serif" font-size="10.5" font-weight="bold" letter-spacing="0.6" fill="#ffffff" text-anchor="middle">DNS</text>
<polygon points="198.5,250.0 282.5,250.0 288.5,256.0 288.5,270.0 282.5,276.0 198.5,276.0 192.5,270.0 192.5,256.0" fill="#000000" stroke="#ffffff" stroke-width="1.2"/>
<text x="240.5" y="267.0" font-family="Arial, Helvetica, sans-serif" font-size="10.5" font-weight="bold" letter-spacing="0.6" fill="#ffffff" text-anchor="middle">HTTP/HTTPS</text>
<polygon points="302.5,250.0 337.5,250.0 343.5,256.0 343.5,270.0 337.5,276.0 302.5,276.0 296.5,270.0 296.5,256.0" fill="#000000" stroke="#ffffff" stroke-width="1.2"/>
<text x="320.0" y="267.0" font-family="Arial, Helvetica, sans-serif" font-size="10.5" font-weight="bold" letter-spacing="0.6" fill="#ffffff" text-anchor="middle">VPN</text>
<polygon points="357.5,250.0 434.5,250.0 440.5,256.0 440.5,270.0 434.5,276.0 357.5,276.0 351.5,270.0 351.5,256.0" fill="#000000" stroke="#ff9500" stroke-width="1.2"/>
<text x="396.0" y="267.0" font-family="Arial, Helvetica, sans-serif" font-size="10.5" font-weight="bold" letter-spacing="0.6" fill="#ff9500" text-anchor="middle">FIREWALLS</text>
<polygon points="454.5,250.0 489.5,250.0 495.5,256.0 495.5,270.0 489.5,276.0 454.5,276.0 448.5,270.0 448.5,256.0" fill="#000000" stroke="#ffffff" stroke-width="1.2"/>
<text x="472.0" y="267.0" font-family="Arial, Helvetica, sans-serif" font-size="10.5" font-weight="bold" letter-spacing="0.6" fill="#ffffff" text-anchor="middle">ARP</text>
<polygon points="509.5,250.0 551.5,250.0 557.5,256.0 557.5,270.0 551.5,276.0 509.5,276.0 503.5,270.0 503.5,256.0" fill="#000000" stroke="#ffffff" stroke-width="1.2"/>
<text x="530.5" y="267.0" font-family="Arial, Helvetica, sans-serif" font-size="10.5" font-weight="bold" letter-spacing="0.6" fill="#ffffff" text-anchor="middle">DHCP</text>
<polygon points="571.5,250.0 690.5,250.0 696.5,256.0 696.5,270.0 690.5,276.0 571.5,276.0 565.5,270.0 565.5,256.0" fill="#000000" stroke="#ffffff" stroke-width="1.2"/>
<text x="631.0" y="267.0" font-family="Arial, Helvetica, sans-serif" font-size="10.5" font-weight="bold" letter-spacing="0.6" fill="#ffffff" text-anchor="middle">PACKET ANALYSIS</text>
<polygon points="710.5,250.0 836.5,250.0 842.5,256.0 842.5,270.0 836.5,276.0 710.5,276.0 704.5,270.0 704.5,256.0" fill="#000000" stroke="#ffffff" stroke-width="1.2"/>
<text x="773.5" y="267.0" font-family="Arial, Helvetica, sans-serif" font-size="10.5" font-weight="bold" letter-spacing="0.6" fill="#ffffff" text-anchor="middle">NETWORK SCANNING</text>
<polygon points="856.5,250.0 982.5,250.0 988.5,256.0 988.5,270.0 982.5,276.0 856.5,276.0 850.5,270.0 850.5,256.0" fill="#000000" stroke="#ffffff" stroke-width="1.2"/>
<text x="919.5" y="267.0" font-family="Arial, Helvetica, sans-serif" font-size="10.5" font-weight="bold" letter-spacing="0.6" fill="#ffffff" text-anchor="middle">PORT ENUMERATION</text>
<polygon points="1002.5,250.0 1086.5,250.0 1092.5,256.0 1092.5,270.0 1086.5,276.0 1002.5,276.0 996.5,270.0 996.5,256.0" fill="#000000" stroke="#ff9500" stroke-width="1.2"/>
<text x="1044.5" y="267.0" font-family="Arial, Helvetica, sans-serif" font-size="10.5" font-weight="bold" letter-spacing="0.6" fill="#ff9500" text-anchor="middle">KALI LINUX</text>
<polygon points="1106.5,250.0 1232.5,250.0 1238.5,256.0 1238.5,270.0 1232.5,276.0 1106.5,276.0 1100.5,270.0 1100.5,256.0" fill="#000000" stroke="#ffffff" stroke-width="1.2"/>
<text x="1169.5" y="267.0" font-family="Arial, Helvetica, sans-serif" font-size="10.5" font-weight="bold" letter-spacing="0.6" fill="#ffffff" text-anchor="middle">WINDOWS SECURITY</text>
<polygon points="94.5,286.0 171.5,286.0 177.5,292.0 177.5,306.0 171.5,312.0 94.5,312.0 88.5,306.0 88.5,292.0" fill="#000000" stroke="#ffffff" stroke-width="1.2"/>
<text x="133.0" y="303.0" font-family="Arial, Helvetica, sans-serif" font-size="10.5" font-weight="bold" letter-spacing="0.6" fill="#ffffff" text-anchor="middle">LINUX CLI</text>
<polygon points="191.5,286.0 275.5,286.0 281.5,292.0 281.5,306.0 275.5,312.0 191.5,312.0 185.5,306.0 185.5,292.0" fill="#000000" stroke="#ffffff" stroke-width="1.2"/>
<text x="233.5" y="303.0" font-family="Arial, Helvetica, sans-serif" font-size="10.5" font-weight="bold" letter-spacing="0.6" fill="#ffffff" text-anchor="middle">VIRTUALBOX</text>
<polygon points="295.5,286.0 477.5,286.0 483.5,292.0 483.5,306.0 477.5,312.0 295.5,312.0 289.5,306.0 289.5,292.0" fill="#000000" stroke="#ffffff" stroke-width="1.2"/>
<text x="386.5" y="303.0" font-family="Arial, Helvetica, sans-serif" font-size="10.5" font-weight="bold" letter-spacing="0.6" fill="#ffffff" text-anchor="middle">VIRTUAL LAB ENVIRONMENTS</text>
<polygon points="497.5,286.0 553.5,286.0 559.5,292.0 559.5,306.0 553.5,312.0 497.5,312.0 491.5,306.0 491.5,292.0" fill="#000000" stroke="#ff9500" stroke-width="1.2"/>
<text x="525.5" y="303.0" font-family="Arial, Helvetica, sans-serif" font-size="10.5" font-weight="bold" letter-spacing="0.6" fill="#ff9500" text-anchor="middle">PYTHON</text>
<polygon points="573.5,286.0 713.5,286.0 719.5,292.0 719.5,306.0 713.5,312.0 573.5,312.0 567.5,306.0 567.5,292.0" fill="#000000" stroke="#ffffff" stroke-width="1.2"/>
<text x="643.5" y="303.0" font-family="Arial, Helvetica, sans-serif" font-size="10.5" font-weight="bold" letter-spacing="0.6" fill="#ffffff" text-anchor="middle">SECURITY SCRIPTING</text>
<polygon points="733.5,286.0 817.5,286.0 823.5,292.0 823.5,306.0 817.5,312.0 733.5,312.0 727.5,306.0 727.5,292.0" fill="#000000" stroke="#ffffff" stroke-width="1.2"/>
<text x="775.5" y="303.0" font-family="Arial, Helvetica, sans-serif" font-size="10.5" font-weight="bold" letter-spacing="0.6" fill="#ffffff" text-anchor="middle">AUTOMATION</text>
<polygon points="837.5,286.0 991.5,286.0 997.5,292.0 997.5,306.0 991.5,312.0 837.5,312.0 831.5,306.0 831.5,292.0" fill="#000000" stroke="#ffffff" stroke-width="1.2"/>
<text x="914.5" y="303.0" font-family="Arial, Helvetica, sans-serif" font-size="10.5" font-weight="bold" letter-spacing="0.6" fill="#ffffff" text-anchor="middle">BASH/SHELL SCRIPTING</text>
<polygon points="1011.5,286.0 1095.5,286.0 1101.5,292.0 1101.5,306.0 1095.5,312.0 1011.5,312.0 1005.5,306.0 1005.5,292.0" fill="#000000" stroke="#ff9500" stroke-width="1.2"/>
<text x="1053.5" y="303.0" font-family="Arial, Helvetica, sans-serif" font-size="10.5" font-weight="bold" letter-spacing="0.6" fill="#ff9500" text-anchor="middle">POWERSHELL</text>
<polygon points="1115.5,286.0 1150.5,286.0 1156.5,292.0 1156.5,306.0 1150.5,312.0 1115.5,312.0 1109.5,306.0 1109.5,292.0" fill="#000000" stroke="#ffffff" stroke-width="1.2"/>
<text x="1133.0" y="303.0" font-family="Arial, Helvetica, sans-serif" font-size="10.5" font-weight="bold" letter-spacing="0.6" fill="#ffffff" text-anchor="middle">SQL</text>
<polygon points="1170.5,286.0 1205.5,286.0 1211.5,292.0 1211.5,306.0 1205.5,312.0 1170.5,312.0 1164.5,306.0 1164.5,292.0" fill="#000000" stroke="#ffffff" stroke-width="1.2"/>
<text x="1188.0" y="303.0" font-family="Arial, Helvetica, sans-serif" font-size="10.5" font-weight="bold" letter-spacing="0.6" fill="#ffffff" text-anchor="middle">PHP</text>
<polygon points="113.5,322.0 253.5,322.0 259.5,328.0 259.5,342.0 253.5,348.0 113.5,348.0 107.5,342.0 107.5,328.0" fill="#000000" stroke="#ffffff" stroke-width="1.2"/>
<text x="183.5" y="339.0" font-family="Arial, Helvetica, sans-serif" font-size="10.5" font-weight="bold" letter-spacing="0.6" fill="#ffffff" text-anchor="middle">AES-256 ENCRYPTION</text>
<polygon points="273.5,322.0 378.5,322.0 384.5,328.0 384.5,342.0 378.5,348.0 273.5,348.0 267.5,342.0 267.5,328.0" fill="#000000" stroke="#ffffff" stroke-width="1.2"/>
<text x="326.0" y="339.0" font-family="Arial, Helvetica, sans-serif" font-size="10.5" font-weight="bold" letter-spacing="0.6" fill="#ffffff" text-anchor="middle">STEGANOGRAPHY</text>
<polygon points="398.5,322.0 573.5,322.0 579.5,328.0 579.5,342.0 573.5,348.0 398.5,348.0 392.5,342.0 392.5,328.0" fill="#000000" stroke="#ff9500" stroke-width="1.2"/>
<text x="486.0" y="339.0" font-family="Arial, Helvetica, sans-serif" font-size="10.5" font-weight="bold" letter-spacing="0.6" fill="#ff9500" text-anchor="middle">ZERO TRUST ARCHITECTURE</text>
<polygon points="593.5,322.0 810.5,322.0 816.5,328.0 816.5,342.0 810.5,348.0 593.5,348.0 587.5,342.0 587.5,328.0" fill="#000000" stroke="#ff9500" stroke-width="1.2"/>
<text x="702.0" y="339.0" font-family="Arial, Helvetica, sans-serif" font-size="10.5" font-weight="bold" letter-spacing="0.6" fill="#ff9500" text-anchor="middle">EDR (CROWDSTRIKE/SENTINELONE)</text>
<polygon points="830.5,322.0 1019.5,322.0 1025.5,328.0 1025.5,342.0 1019.5,348.0 830.5,348.0 824.5,342.0 824.5,328.0" fill="#000000" stroke="#ffffff" stroke-width="1.2"/>
<text x="925.0" y="339.0" font-family="Arial, Helvetica, sans-serif" font-size="10.5" font-weight="bold" letter-spacing="0.6" fill="#ffffff" text-anchor="middle">SERVICENOW/JIRA TICKETING</text>
<polygon points="1039.5,322.0 1186.5,322.0 1192.5,328.0 1192.5,342.0 1186.5,348.0 1039.5,348.0 1033.5,342.0 1033.5,328.0" fill="#000000" stroke="#ff9500" stroke-width="1.2"/>
<text x="1113.0" y="339.0" font-family="Arial, Helvetica, sans-serif" font-size="10.5" font-weight="bold" letter-spacing="0.6" fill="#ff9500" text-anchor="middle">24X7 SOC OPERATIONS</text>
<line x1="40" y1="366" x2="1260" y2="366" stroke="#333333" stroke-width="1"/>
</svg>